<?xml version="1.0" encoding="utf-8"?><svg xmlns="http://www.w3.org/2000/svg" xmlns:xlink="http://www.w3.org/1999/xlink"><symbol fill="none" viewBox="0 0 24 24" id="arrow-down" xmlns="http://www.w3.org/2000/svg"><path d="M12 2v21m0 0 8-7.76M12 23l-8-7.76" stroke="currentColor"/></symbol><symbol viewBox="0 0 24 13" fill="none" id="arrow-left" xmlns="http://www.w3.org/2000/svg"><path d="m6.418 12.133 1.042-.985-4.638-4.385H23.4V5.37H2.822L7.46.985 6.418 0 0 6.067l6.418 6.066Z" fill="currentColor"/></symbol><symbol viewBox="0 0 24 13" fill="none" id="arrow-right" xmlns="http://www.w3.org/2000/svg"><path d="M16.982 0 15.94.985l4.638 4.385H0v1.393h20.578l-4.638 4.385 1.042.985L23.4 6.067 16.982 0Z" fill="currentColor"/></symbol><symbol fill="none" viewBox="0 0 33 22" id="burger" xmlns="http://www.w3.org/2000/svg"><path d="M0 .275h33v1.65H0V.275Zm0 9.9h33v1.65H0v-1.65Zm0 9.9h33v1.65H0v-1.65Z" fill="#272727"/></symbol><symbol fill="none" viewBox="0 0 34 22" id="burger-close" xmlns="http://www.w3.org/2000/svg"><path d="M8 20.095 26.095 2l.905.905L8.905 21 8 20.095Z" fill="#272727"/><path d="M8.905 2 27 20.095l-.905.905L8 2.905 8.905 2Z" fill="#272727"/></symbol><symbol fill="none" viewBox="0 0 64 64" id="dzen" xmlns="http://www.w3.org/2000/svg"><g clip-path="url(#fa)"><path fill-rule="evenodd" clip-rule="evenodd" d="M32.077 63.625h-.253c-12.632 0-20.019-1.272-25.164-6.316C1.363 51.907.14 44.572.14 31.991v-.356c0-12.582 1.223-19.97 6.52-25.32C11.854 1.273 19.192 0 31.827 0h.254C44.663 0 52.05 1.272 57.24 6.316c5.297 5.403 6.52 12.737 6.52 25.319v.355c0 12.586-1.223 19.97-6.52 25.32-5.195 5.043-12.529 6.315-25.164 6.315Zm23.671-32.75a.46.46 0 0 1 .44.455h-.004v1.014a.455.455 0 0 1-.44.455c-8.696.33-13.984 1.435-17.69 5.14-3.703 3.703-4.809 8.985-5.142 17.665a.46.46 0 0 1-.454.44H31.44a.455.455 0 0 1-.455-.44c-.333-8.68-1.438-13.962-5.141-17.664-3.703-3.703-8.995-4.812-17.691-5.141a.46.46 0 0 1-.44-.455V31.33c0-.246.198-.447.44-.454 8.696-.33 13.985-1.435 17.691-5.142 3.71-3.71 4.816-9.01 5.145-17.72a.46.46 0 0 1 .454-.44h1.015c.246 0 .447.197.454.44.33 8.714 1.435 14.01 5.145 17.72 3.703 3.703 8.995 4.812 17.691 5.142Z" fill="currentColor"/></g><defs><clipPath id="fa"><path fill="#fff" d="M0 0h64v64H0z"/></clipPath></defs></symbol><symbol fill="none" viewBox="0 0 64 64" id="vk" xmlns="http://www.w3.org/2000/svg"><g clip-path="url(#ga)"><path fill-rule="evenodd" clip-rule="evenodd" d="M4.5 4.5C0 8.998 0 16.24 0 30.72v2.56C0 47.76.002 55 4.5 59.5S16.24 64 30.72 64h2.56c14.48 0 21.72-.002 26.22-4.5S64 47.76 64 33.28v-2.56C64 16.24 63.998 9 59.5 4.5S47.76 0 33.28 0h-2.56C16.24 0 9 .002 4.5 4.5ZM10.64 20c.344 16.648 9.104 26.666 23.544 26.666h.838v-9.524c5.258.534 9.182 4.458 10.782 9.524h7.582c-2.058-7.58-7.39-11.77-10.706-13.372 3.312-1.98 8-6.78 9.106-13.294h-6.9c-1.448 5.298-5.754 10.098-9.868 10.554V20H28.01v18.478C23.744 37.412 18.182 32.23 17.954 20H10.64Z" fill="currentColor"/></g><defs><clipPath id="ga"><path fill="#fff" d="M0 0h64v64H0z"/></clipPath></defs></symbol></svg>