<?xml version="1.0" encoding="utf-8"?><svg xmlns="http://www.w3.org/2000/svg" xmlns:xlink="http://www.w3.org/1999/xlink">

<symbol fill="none" viewBox="0 0 24 24" id="arrow-down" xmlns="http://www.w3.org/2000/svg"><path d="M12 2v21m0 0 8-7.76M12 23l-8-7.76" stroke="currentColor"/></symbol>
<symbol width="48" height="48" viewBox="0 0 48 48" id="video-play" fill="none" xmlns="http://www.w3.org/2000/svg">
<path d="M48 24C48 37.2548 37.2548 48 24 48C10.7452 48 0 37.2548 0 24C0 10.7452 10.7452 0 24 0C37.2548 0 48 10.7452 48 24Z" fill="#E6D3BC"/>
<g filter="url(#filter0_d_861_466)">
<path d="M33.75 24L33.4662 23.8384C28.2697 20.8804 23.5592 17.1405 19.5 12.75V35.25C23.5592 30.8595 28.2697 27.1196 33.4662 24.1616L33.75 24Z" fill="#CDA679"/>
</g>
<defs>
<filter id="filter0_d_861_466" x="17.5" y="11.25" width="18.25" height="26.5" filterUnits="userSpaceOnUse" color-interpolation-filters="sRGB">
<feFlood flood-opacity="0" result="BackgroundImageFix"/>
<feColorMatrix in="SourceAlpha" type="matrix" values="0 0 0 0 0 0 0 0 0 0 0 0 0 0 0 0 0 0 127 0" result="hardAlpha"/>
<feOffset dy="0.5"/>
<feGaussianBlur stdDeviation="1"/>
<feComposite in2="hardAlpha" operator="out"/>
<feColorMatrix type="matrix" values="0 0 0 0 0 0 0 0 0 0 0 0 0 0 0 0 0 0 1 0"/>
<feBlend mode="overlay" in2="BackgroundImageFix" result="effect1_dropShadow_861_466"/>
<feBlend mode="normal" in="SourceGraphic" in2="effect1_dropShadow_861_466" result="shape"/>
</filter>
</defs>
</symbol>

<symbol viewBox="0 0 24 13" fill="none" id="arrow-left" xmlns="http://www.w3.org/2000/svg"><path d="m6.418 12.133 1.042-.985-4.638-4.385H23.4V5.37H2.822L7.46.985 6.418 0 0 6.067l6.418 6.066Z" fill="currentColor"/></symbol><symbol viewBox="0 0 24 13" fill="none" id="arrow-right" xmlns="http://www.w3.org/2000/svg"><path d="M16.982 0 15.94.985l4.638 4.385H0v1.393h20.578l-4.638 4.385 1.042.985L23.4 6.067 16.982 0Z" fill="currentColor"/></symbol><symbol fill="none" viewBox="0 0 33 22" id="burger" xmlns="http://www.w3.org/2000/svg"><path d="M0 .275h33v1.65H0V.275Zm0 9.9h33v1.65H0v-1.65Zm0 9.9h33v1.65H0v-1.65Z" fill="#272727"/></symbol><symbol fill="none" viewBox="0 0 34 22" id="burger-close" xmlns="http://www.w3.org/2000/svg"><path d="M8 20.095 26.095 2l.905.905L8.905 21 8 20.095Z" fill="#272727"/><path d="M8.905 2 27 20.095l-.905.905L8 2.905 8.905 2Z" fill="#272727"/></symbol><symbol fill="none" viewBox="0 0 64 64" id="dzen" xmlns="http://www.w3.org/2000/svg"><g clip-path="url(#fa)"><path fill-rule="evenodd" clip-rule="evenodd" d="M32.077 63.625h-.253c-12.632 0-20.019-1.272-25.164-6.316C1.363 51.907.14 44.572.14 31.991v-.356c0-12.582 1.223-19.97 6.52-25.32C11.854 1.273 19.192 0 31.827 0h.254C44.663 0 52.05 1.272 57.24 6.316c5.297 5.403 6.52 12.737 6.52 25.319v.355c0 12.586-1.223 19.97-6.52 25.32-5.195 5.043-12.529 6.315-25.164 6.315Zm23.671-32.75a.46.46 0 0 1 .44.455h-.004v1.014a.455.455 0 0 1-.44.455c-8.696.33-13.984 1.435-17.69 5.14-3.703 3.703-4.809 8.985-5.142 17.665a.46.46 0 0 1-.454.44H31.44a.455.455 0 0 1-.455-.44c-.333-8.68-1.438-13.962-5.141-17.664-3.703-3.703-8.995-4.812-17.691-5.141a.46.46 0 0 1-.44-.455V31.33c0-.246.198-.447.44-.454 8.696-.33 13.985-1.435 17.691-5.142 3.71-3.71 4.816-9.01 5.145-17.72a.46.46 0 0 1 .454-.44h1.015c.246 0 .447.197.454.44.33 8.714 1.435 14.01 5.145 17.72 3.703 3.703 8.995 4.812 17.691 5.142Z" fill="currentColor"/></g><defs><clipPath id="fa"><path fill="#fff" d="M0 0h64v64H0z"/></clipPath></defs></symbol><symbol fill="none" viewBox="0 0 48 48" id="pinterest" xmlns="http://www.w3.org/2000/svg"><g clip-path="url(#ga)"><path d="M23.969.12C10.759.12.049 10.828.049 24.04c0 10.133 6.305 18.796 15.203 22.281-.21-1.892-.398-4.803.083-6.869.434-1.867 2.805-11.89 2.805-11.89s-.716-1.433-.716-3.551c0-3.326 1.928-5.81 4.328-5.81 2.041 0 3.027 1.533 3.027 3.37 0 2.052-1.307 5.12-1.981 7.964-.564 2.381 1.194 4.323 3.542 4.323 4.251 0 7.52-4.483 7.52-10.954 0-5.727-4.116-9.731-9.992-9.731-6.806 0-10.801 5.104-10.801 10.38 0 2.056.792 4.26 1.78 5.459.196.237.224.444.166.686-.182.755-.585 2.38-.664 2.713-.105.438-.347.53-.8.32-2.988-1.391-4.856-5.759-4.856-9.267 0-7.546 5.483-14.475 15.805-14.475 8.298 0 14.747 5.913 14.747 13.815 0 8.244-5.198 14.878-12.413 14.878-2.424 0-4.702-1.259-5.482-2.747 0 0-1.2 4.568-1.49 5.687-.54 2.077-1.998 4.682-2.973 6.27a23.909 23.909 0 0 0 7.082 1.067c13.21 0 23.92-10.71 23.92-23.92S37.179.12 23.969.12Z" fill="currentColor"/></g><defs><clipPath id="ga"><path fill="#fff" d="M0 0h48v48H0z"/></clipPath></defs></symbol><symbol fill="none" viewBox="0 0 48 48" id="telegram" xmlns="http://www.w3.org/2000/svg"><path fill-rule="evenodd" clip-rule="evenodd" d="M48 24c0 13.255-10.745 24-24 24S0 37.255 0 24 10.745 0 24 0s24 10.745 24 24Zm-23.16-6.295c-2.339.98-6.995 2.998-13.989 6.035-1.12.46-1.719.9-1.779 1.34-.088.743.842 1.031 2.098 1.42l.5.158c1.24.4 2.878.86 3.737.88.78.019 1.639-.3 2.598-.96 6.535-4.416 9.892-6.655 10.112-6.695.16-.04.36-.08.5.04.139.12.139.36.12.42-.096.397-3.995 4.016-5.769 5.663-.457.425-.773.718-.846.792-.188.193-.379.375-.562.55-1.147 1.099-2.008 1.923.042 3.267a176.9 176.9 0 0 1 2.424 1.633c.895.61 1.772 1.209 2.931 1.964.274.179.535.365.79.546.996.708 1.894 1.347 3.007 1.252.64-.06 1.3-.66 1.639-2.458.8-4.236 2.358-13.449 2.718-17.246.04-.32 0-.739-.04-.939-.04-.2-.1-.46-.34-.66-.3-.24-.74-.279-.94-.279-.898.02-2.297.5-8.952 3.277Z" fill="currentColor"/></symbol>
<symbol fill="none" viewBox="0 0 64 64" id="vk" xmlns="http://www.w3.org/2000/svg"><g clip-path="url(#ia)"><path fill-rule="evenodd" clip-rule="evenodd" d="M4.5 4.5C0 8.998 0 16.24 0 30.72v2.56C0 47.76.002 55 4.5 59.5S16.24 64 30.72 64h2.56c14.48 0 21.72-.002 26.22-4.5S64 47.76 64 33.28v-2.56C64 16.24 63.998 9 59.5 4.5S47.76 0 33.28 0h-2.56C16.24 0 9 .002 4.5 4.5ZM10.64 20c.344 16.648 9.104 26.666 23.544 26.666h.838v-9.524c5.258.534 9.182 4.458 10.782 9.524h7.582c-2.058-7.58-7.39-11.77-10.706-13.372 3.312-1.98 8-6.78 9.106-13.294h-6.9c-1.448 5.298-5.754 10.098-9.868 10.554V20H28.01v18.478C23.744 37.412 18.182 32.23 17.954 20H10.64Z" fill="currentColor"/></g><defs><clipPath id="ia"><path fill="#fff" d="M0 0h64v64H0z"/></clipPath></defs></symbol>
<symbol viewBox="0 0 22 22" id="contact-arrow" fill="none" xmlns="http://www.w3.org/2000/svg">
<path d="M13.2588 3.18457C14.9681 6.03516 17.3525 8.42195 20.2021 10.1328L21.457 10.8857L20.2021 11.6387C17.3525 13.3495 14.9681 15.7363 13.2588 18.5869L13.1475 18.7715L11.8613 18L11.9727 17.8154C13.4147 15.4105 15.3055 13.3153 17.5332 11.6357H0V10.1357H17.5332C15.3055 8.45616 13.4147 6.36096 11.9727 3.95605L11.8613 3.77148L13.1475 3L13.2588 3.18457Z" fill="currentColor"/>
</symbol>
</svg>
