<svg width="121" height="37" viewBox="0 0 121 37" fill="none" xmlns="http://www.w3.org/2000/svg">
<path d="M33.29 2.08H28L22.21 8.38V2.95C22.21 2.46 21.81 2.06 21.33 2.06H17.6C17.29 2.06 17.02 2.21 16.86 2.47L13.51 7.72H8.78L5.51 2.48C5.35 2.21 5.07 2.06 4.76 2.06H0.9C0.42 2.06 0.02 2.46 0.02 2.95V8.26L6.3 14.07H15.92L22.22 8.39V18.04L27.88 24.36H18.26L11.97 30.04V35.46C11.97 35.95 12.37 36.35 12.86 36.35H16.59C16.9 36.35 17.17 36.2 17.33 35.94L20.68 30.69H25.4L28.67 35.93C28.83 36.2 29.11 36.35 29.42 36.35H33.27C33.76 36.35 34.15 35.95 34.15 35.46V30.16L27.87 24.35H33.28C33.77 24.35 34.17 23.95 34.17 23.46V19.72C34.17 19.41 34.02 19.14 33.76 18.97L28.53 15.61V10.87L33.76 7.59C34.03 7.43 34.18 7.15 34.18 6.84V2.97C34.18 2.48 33.78 2.08 33.29 2.08ZM6.3 14.07H0.89C0.4 14.07 0 14.47 0 14.96V18.7C0 19.01 0.15 19.28 0.41 19.45L5.65 22.81V27.55L0.42 30.82C0.15 30.99 0 31.26 0 31.57V35.43C0 35.92 0.4 36.32 0.89 36.32H6.18L11.96 30.02V20.37L6.3 14.05V14.07ZM50.46 34.69H51.97V30.29H52.65C53.34 30.29 53.59 30.39 53.59 30.39L53.85 30.53L54.21 30.13V29.19H50.46V34.69ZM58.67 29.63C58.3 29.34 57.77 29.19 57.14 29.19H55.11V34.69H56.62V32.69H57.14C57.77 32.69 58.3 32.54 58.68 32.24C59.08 31.93 59.3 31.49 59.3 30.93C59.3 30.37 59.08 29.93 58.68 29.62L58.67 29.63ZM57.57 31.41C57.45 31.52 57.26 31.58 57.01 31.58H56.61V30.28H57.01C57.26 30.28 57.45 30.34 57.57 30.45C57.68 30.55 57.74 30.71 57.74 30.93C57.74 31.15 57.68 31.3 57.57 31.41ZM61.2 29.18V29.64C61.2 29.64 61.22 29.73 61.27 29.83L59.26 34.68H60.5L61.05 33.33H62.8L63.36 34.68H64.96L62.66 29.18H61.21H61.2ZM61.48 32.24L61.9 31.23L62.32 32.24H61.48ZM68.89 31.34H67.09V29.18H65.58V34.68H67.09V32.43H68.89V34.68H70.4V29.18H68.89V31.34ZM76.81 33.59H76.45V29.19H72.74L72.42 29.51L72.45 29.7C72.45 29.7 72.54 30.27 72.54 31.17C72.54 32.07 72.46 32.61 72.35 33.02C72.25 33.39 72.15 33.55 72.09 33.59H71.59L71.29 33.89L71.36 35.92H72.27L72.56 35.63V35.47C72.56 35.14 72.6 34.87 72.63 34.7H75.75C75.78 34.88 75.82 35.14 75.82 35.47V35.63L76.11 35.92H77.02L77.08 33.9L76.8 33.59H76.81ZM74.94 33.59H73.45C73.51 33.43 73.55 33.25 73.59 33.05C73.69 32.54 73.74 31.87 73.74 31.01V30.29H74.95V33.59H74.94ZM92.43 29.13C91.62 29.13 90.94 29.42 90.45 29.92C89.97 30.42 89.68 31.12 89.68 31.94C89.68 32.76 89.96 33.46 90.45 33.96C90.94 34.46 91.63 34.75 92.43 34.75C93.23 34.75 93.93 34.46 94.42 33.96C94.9 33.46 95.19 32.76 95.19 31.94C95.19 31.12 94.91 30.42 94.42 29.92C93.93 29.42 93.24 29.13 92.43 29.13ZM93.25 33.27C93.05 33.54 92.77 33.69 92.43 33.69C92.09 33.69 91.81 33.54 91.61 33.27C91.4 32.97 91.27 32.52 91.27 31.94C91.27 31.36 91.39 30.91 91.61 30.61C91.81 30.34 92.09 30.19 92.43 30.19C92.77 30.19 93.05 30.34 93.25 30.61C93.46 30.91 93.59 31.36 93.59 31.94C93.59 32.52 93.47 32.97 93.25 33.27ZM95.6 30.15L95.98 30.52L96.23 30.4C96.23 30.4 96.48 30.3 97.17 30.3H97.32V34.7H98.83V30.3H98.98C99.67 30.3 99.92 30.4 99.92 30.4L100.18 30.54L100.54 30.14V29.2H95.61V30.16L95.6 30.15ZM104.69 33.47C104.69 33.47 104.45 33.59 103.75 33.59H102.94V32.45H104.86V31.61L104.56 31.35H102.94V30.3H103.69C104.38 30.3 104.63 30.4 104.63 30.4L104.88 30.52L105.26 30.14V29.18H101.44V34.68H105.33V33.73L104.95 33.35L104.7 33.47H104.69ZM106.91 29.52H106.92L106.96 29.72C106.96 29.72 107.05 30.15 107.05 31.16C107.05 32.01 107 32.6 106.9 32.98C106.84 33.2 106.77 33.31 106.7 33.31C106.61 33.31 106.57 33.29 106.57 33.29L106.32 33.17L105.94 33.55V33.71C105.94 34.12 106.03 34.42 106.03 34.42L106.08 34.57L106.22 34.64C106.22 34.64 106.46 34.75 106.76 34.75C107.32 34.75 107.71 34.44 107.96 33.72C108.16 33.15 108.25 32.27 108.25 31.01V30.29H109.39V34.69H110.9V29.19H107.26L106.93 29.52H106.91ZM115.7 31.7C115.33 31.41 114.79 31.26 114.16 31.26H113.69V29.2H112.18V34.7H114.16C114.79 34.7 115.32 34.55 115.7 34.27C116.1 33.97 116.33 33.53 116.33 32.99C116.33 32.45 116.1 32.01 115.7 31.71V31.7ZM114.62 33.41C114.5 33.53 114.3 33.58 114.05 33.58H113.7V32.35H114.05C114.3 32.35 114.5 32.41 114.62 32.52C114.72 32.62 114.79 32.77 114.79 32.97C114.79 33.17 114.73 33.33 114.62 33.42V33.41ZM80.73 31.94V32.55H85.69V31.94H80.73ZM120.27 22.07L120.22 22.03C120.19 22.01 120.17 21.97 120.14 21.93C120.11 21.89 120.09 21.84 120.07 21.78L120.05 21.73C119.99 21.59 119.95 21.43 119.91 21.26C119.87 21.08 119.84 20.89 119.82 20.68C119.8 20.48 119.78 20.29 119.77 20.11C119.76 19.94 119.75 19.8 119.75 19.69V6.72C119.75 6.66 119.75 6.58 119.75 6.48L119.77 6.04C119.77 5.87 119.79 5.69 119.82 5.51C119.85 5.33 119.88 5.15 119.91 4.96C119.93 4.87 119.95 4.79 119.97 4.71C119.99 4.64 120.01 4.56 120.04 4.5L120.06 4.45C120.06 4.45 120.1 4.37 120.12 4.34C120.14 4.29 120.17 4.26 120.2 4.23C120.21 4.21 120.23 4.19 120.25 4.19C120.26 4.19 120.29 4.19 120.29 4.19V3.72H118.49L106.26 17.31V6.2C106.28 6.06 106.29 5.92 106.3 5.78C106.31 5.64 106.33 5.49 106.36 5.32C106.38 5.17 106.41 5.02 106.44 4.88C106.47 4.76 106.51 4.63 106.55 4.52L106.57 4.48C106.57 4.48 106.62 4.38 106.64 4.34C106.66 4.3 106.69 4.27 106.72 4.24C106.74 4.22 106.75 4.21 106.77 4.2C106.79 4.19 106.83 4.19 106.83 4.19V3.96H106.85V3.73H104.36V4.2C104.36 4.2 104.43 4.22 104.46 4.25C104.49 4.28 104.51 4.32 104.54 4.35C104.56 4.39 104.59 4.44 104.61 4.49L104.63 4.53C104.68 4.67 104.72 4.81 104.76 4.97C104.8 5.14 104.83 5.32 104.85 5.51C104.87 5.71 104.89 5.88 104.91 6.04C104.93 6.21 104.93 6.35 104.93 6.46V22.54H106.94L118.39 9.8V19.69C118.39 19.81 118.39 19.94 118.37 20.1C118.36 20.27 118.34 20.46 118.32 20.66C118.3 20.86 118.27 21.06 118.23 21.24C118.19 21.42 118.14 21.58 118.08 21.74L118.06 21.79C118.06 21.79 118.02 21.87 118 21.9C117.98 21.94 117.95 21.98 117.92 22.01C117.9 22.03 117.88 22.05 117.87 22.05C117.86 22.05 117.83 22.05 117.83 22.05V22.52H120.32V22.05C120.32 22.05 120.28 22.05 120.27 22.04V22.07ZM57.59 19.63C57.59 19.63 57.64 19.75 57.68 19.85L57.82 20.26C57.88 20.43 57.92 20.59 57.97 20.76C58.01 20.93 58.06 21.11 58.09 21.31C58.13 21.49 58.15 21.67 58.15 21.82C58.15 21.97 58.14 22.11 58.11 22.24L58.04 22.53H64.29L63.52 22.09C63.52 22.09 63.14 21.89 62.94 21.58C62.82 21.4 62.7 21.21 62.58 21C62.47 20.8 62.35 20.58 62.24 20.35C62.13 20.13 62.04 19.92 61.95 19.73C61.86 19.53 61.78 19.36 61.72 19.2L55.3 3.7H51L52.32 6.89L47.09 19.52C47.03 19.67 46.95 19.83 46.86 20.01C46.76 20.21 46.67 20.41 46.57 20.6C46.47 20.8 46.36 20.99 46.26 21.17C46.16 21.35 46.05 21.51 45.94 21.66C45.84 21.8 45.75 21.91 45.67 21.97C45.61 22.01 45.57 22.04 45.54 22.04V22.51H48.11L48.04 22.22C48.02 22.13 48 22.02 48 21.92C48 21.81 48 21.69 48.01 21.56C48.03 21.43 48.04 21.31 48.07 21.2C48.09 21.08 48.12 20.97 48.14 20.84C48.17 20.7 48.21 20.58 48.24 20.45C48.28 20.32 48.31 20.2 48.34 20.11C48.38 20.04 48.43 19.84 48.46 19.75L48.8 18.93H57.31L57.6 19.61L57.59 19.63ZM49.37 17.6L53.06 8.69L56.75 17.6H49.38H49.37ZM80.88 5.65H81.2V3.72H67.08V4.19C67.08 4.19 67.12 4.19 67.13 4.2C67.15 4.2 67.18 4.24 67.18 4.24C67.21 4.27 67.24 4.3 67.26 4.34C67.28 4.38 67.3 4.42 67.32 4.46C67.32 4.48 67.33 4.5 67.34 4.52C67.38 4.64 67.43 4.78 67.46 4.92C67.5 5.07 67.53 5.23 67.55 5.4C67.57 5.56 67.59 5.73 67.6 5.9C67.61 6.06 67.62 6.21 67.62 6.33V6.74L67.63 19.6C67.63 19.7 67.63 19.84 67.62 20C67.61 20.17 67.59 20.36 67.57 20.58C67.55 20.8 67.52 21 67.48 21.2C67.44 21.4 67.38 21.58 67.32 21.75L67.3 21.8C67.3 21.8 67.26 21.89 67.24 21.92C67.22 21.96 67.17 22.02 67.17 22.02C67.15 22.04 67.14 22.05 67.12 22.06C67.11 22.06 67.07 22.06 67.07 22.06V22.53H72.18V22.06C72.18 22.06 72.12 22.04 72.09 22.02C72.04 21.98 72 21.92 71.96 21.83L71.94 21.79C71.92 21.73 71.89 21.66 71.87 21.59C71.85 21.51 71.82 21.43 71.8 21.34C71.76 21.16 71.73 20.98 71.7 20.8C71.68 20.62 71.66 20.44 71.65 20.27L71.63 19.81C71.63 19.7 71.63 19.61 71.63 19.54V6.63C71.63 6.55 71.63 6.45 71.63 6.34C71.63 6.22 71.65 6.08 71.66 5.9C71.67 5.73 71.69 5.57 71.72 5.4C71.74 5.3 71.76 5.19 71.78 5.09H78.24C78.31 5.09 78.41 5.09 78.52 5.09L78.96 5.11C79.14 5.12 79.32 5.14 79.49 5.17C79.67 5.19 79.85 5.23 80.03 5.27C80.12 5.29 80.2 5.31 80.28 5.34C80.35 5.36 80.41 5.39 80.48 5.42H80.5C80.59 5.48 80.65 5.52 80.69 5.56C80.72 5.59 80.74 5.63 80.74 5.66H80.88V5.65ZM99.22 7.54C98.51 6.56 97.6 5.73 96.51 5.05C95.4 4.39 94.24 3.96 93.06 3.78C91.88 3.6 90.64 3.65 89.38 3.94C88.12 4.27 87.02 4.78 86.05 5.49C85.08 6.2 84.26 7.11 83.57 8.21C82.91 9.33 82.49 10.48 82.3 11.68C82.12 12.87 82.17 14.11 82.46 15.36C82.78 16.63 83.3 17.74 84.01 18.71C84.72 19.68 85.63 20.52 86.72 21.2C87.83 21.86 88.99 22.29 90.17 22.47C91.36 22.65 92.58 22.6 93.84 22.31C95.1 21.98 96.2 21.47 97.18 20.76C98.15 20.05 98.98 19.14 99.67 18.04C100.33 16.92 100.75 15.76 100.93 14.57C101.11 13.38 101.06 12.15 100.77 10.89C100.45 9.62 99.93 8.51 99.22 7.54ZM96.7 17.83C96.42 18.56 96.06 19.18 95.65 19.67C95.23 20.16 94.75 20.53 94.2 20.79C94.1 20.83 93.99 20.86 93.88 20.89C93.76 20.92 93.64 20.96 93.52 20.98C93.41 21 93.29 21.04 93.16 21.06C93.04 21.08 92.93 21.1 92.82 21.12C92.21 21.14 91.61 21.04 91.03 20.79C90.43 20.54 89.84 20.16 89.25 19.64C88.54 18.99 87.95 18.23 87.45 17.36C86.96 16.49 86.57 15.51 86.29 14.41C86.03 13.31 85.92 12.25 85.96 11.25C86 10.25 86.18 9.3 86.51 8.39C86.78 7.69 87.11 7.1 87.5 6.62C87.89 6.15 88.34 5.78 88.85 5.51C88.98 5.46 89.12 5.42 89.26 5.37C89.41 5.32 89.56 5.28 89.69 5.25C89.82 5.21 89.97 5.18 90.12 5.15C90.26 5.13 90.4 5.1 90.54 5.08C91.12 5.08 91.7 5.2 92.26 5.45C92.83 5.7 93.4 6.06 93.96 6.56C94.67 7.21 95.27 7.97 95.76 8.84C96.26 9.71 96.64 10.69 96.92 11.79C97.18 12.9 97.29 13.95 97.25 14.95C97.21 15.94 97.03 16.9 96.7 17.81V17.83ZM116.89 0.6L115.17 0C114.75 3.27 109.97 3.27 109.56 0L107.82 0.6C109.96 4.36 114.75 4.36 116.9 0.6H116.89Z" fill="url(#paint0_linear_57_175)"/>
<defs>
<linearGradient id="paint0_linear_57_175" x1="32.726" y1="51.2616" x2="76.7326" y2="-19.3101" gradientUnits="userSpaceOnUse">
<stop stop-color="#B39067"/>
<stop offset="0.5" stop-color="#EDC892"/>
<stop offset="1" stop-color="#B39067"/>
</linearGradient>
</defs>
</svg>
