<svg width="662" height="208" viewBox="0 0 662 208" fill="none" xmlns="http://www.w3.org/2000/svg">
<path d="M200.267 1.37279H168.443L133.612 39.1275V6.58655C133.612 3.65007 131.205 1.25293 128.318 1.25293H105.879C104.014 1.25293 102.39 2.15185 101.427 3.70999L81.274 35.1722H52.8191L33.1471 3.76991C32.1847 2.15185 30.5004 1.25293 28.6353 1.25293H5.41426C2.52666 1.25293 0.120317 3.65007 0.120317 6.58655V38.4085L37.8998 73.2267H95.7721L133.672 39.1876V97.0184L167.721 134.893H109.849L72.0096 168.932V201.413C72.0096 204.35 74.4158 206.747 77.3637 206.747H99.8028C101.668 206.747 103.292 205.848 104.254 204.29L124.407 172.828H152.802L172.474 204.23C173.436 205.848 175.121 206.747 176.986 206.747H200.147C203.095 206.747 205.441 204.35 205.441 201.413V169.651L167.661 134.833H200.207C203.155 134.833 205.561 132.436 205.561 129.499V107.086C205.561 105.228 204.659 103.61 203.095 102.592L171.632 82.4556V54.0498L203.095 34.3933C204.719 33.4343 205.621 31.7565 205.621 29.8985V6.70641C205.621 3.76991 203.215 1.37279 200.267 1.37279ZM37.8998 73.2267H5.3541C2.40633 73.2267 0 75.624 0 78.5603V100.974C0 102.831 0.902376 104.45 2.46649 105.468L33.9894 125.604V154.01L2.52666 173.607C0.902376 174.625 0 176.243 0 178.101V201.233C0 204.17 2.40633 206.567 5.3541 206.567H37.1778L71.9494 168.812V110.981L37.8998 73.1069V73.2267Z" fill="url(#paint0_linear_1128_40)"/>
<path d="M575.464 109.538C588.942 109.538 600.421 114.148 609.785 123.356H609.782C619.228 132.559 624.013 143.827 624.101 157.06C624.191 170.302 619.487 181.659 610.046 191.03L609.9 191.175L609.888 191.18C600.462 200.374 588.912 204.98 575.336 204.98C561.76 204.98 550.207 200.375 540.781 191.18L540.771 191.175L540.626 191.03C531.185 181.662 526.443 170.31 526.443 157.072C526.443 143.834 531.187 132.56 540.638 123.353L540.769 123.221L540.784 123.211C550.295 114.099 561.888 109.539 575.464 109.538ZM476.382 108.792C486.5 108.792 495.479 110.833 503.265 114.969L504.705 115.752C511.774 119.729 516.907 124.677 519.971 130.646L519.976 130.653L519.983 130.671L519.993 130.688L520.001 130.705C520.4 131.557 520.881 132.496 521.445 133.522C522.122 134.592 522.621 135.43 522.912 135.998C523.208 136.576 523.451 137.191 523.645 137.836C523.903 138.442 524.126 139.116 524.126 139.769C524.126 140.051 524.081 140.319 524.013 140.572L524.164 140.67L523.444 141.73L518.203 149.449L517.85 149.972L516.939 151.311L515.871 150.095L515.452 149.62L514.682 148.749L514.512 148.55L514.048 148.024L514.254 147.354L514.329 147.107C514.592 146.254 514.938 145.198 515.367 143.945C515.788 142.635 516.077 141.709 516.24 141.155C516.322 140.837 516.41 140.482 516.51 140.09C516.618 139.676 516.736 139.22 516.864 138.722L516.874 138.683L516.887 138.637L516.902 138.592C517.062 138.121 517.155 137.796 517.198 137.589V137.582L517.193 137.565V137.281C517.193 137.087 517.165 136.743 517.102 136.214C514.514 129.57 509.803 124.153 502.844 119.971L502.814 119.956C495.825 115.683 487.046 113.491 476.382 113.491C464.207 113.491 454.513 117.516 447.126 125.502C439.794 133.437 436.037 143.628 435.952 156.213C435.872 169.042 439.586 179.43 446.998 187.524L447.695 188.26C454.992 195.758 464.461 199.532 476.254 199.532C490.484 199.532 501.56 195.611 509.682 187.937C517.503 180.544 520.791 171.109 519.447 159.421H475.79V154.722H523.925L524.058 155.824L524.111 156.24C525.074 164.092 524.427 171.22 522.102 177.578C519.793 183.894 516.257 189.02 511.473 192.89L511.445 192.912L511.443 192.91C506.764 196.605 501.435 199.433 495.469 201.4L495.467 201.402L495.459 201.405L495.457 201.402L495.437 201.412C489.459 203.296 483.059 204.231 476.254 204.231C462.605 204.231 451 199.579 441.549 190.286L441.544 190.284C432.103 180.916 427.361 169.563 427.361 156.326C427.361 143.087 432.105 131.811 441.557 122.604L441.562 122.599C451.095 113.397 462.738 108.792 476.382 108.792ZM325.458 111.78C326.343 111.823 327.111 111.891 327.743 111.985C328.337 112.074 328.959 112.208 329.463 112.453C330.245 112.834 330.774 113.518 331.148 114.259L331.186 114.247L331.369 114.749C331.459 114.968 331.539 115.189 331.609 115.404L334.804 124.119L334.964 124.557L335.396 125.734L334.217 126.165L333.768 126.329L332.748 126.704L332.429 126.819L331.624 127.112L331.055 126.469L330.837 126.219C330.318 125.629 329.628 124.833 328.773 123.835L328.768 123.828L328.753 123.811L328.726 123.774L328.696 123.735L328.683 123.718L328.68 123.713C327.921 122.643 327.359 121.905 326.985 121.469L326.98 121.464L326.965 121.444L326.928 121.398L326.893 121.349L326.878 121.329L326.873 121.322C326.624 120.956 326.2 120.465 325.561 119.841L325.556 119.839L325.513 119.795L325.491 119.768C324.829 119.043 324.352 118.591 324.047 118.351L324.004 118.317L323.891 118.231L323.803 118.123L323.768 118.082C323.64 117.926 323.45 117.75 323.171 117.565L322.86 117.377L322.838 117.365L322.785 117.335L322.735 117.298L322.715 117.286L322.712 117.284C322.213 116.936 321.812 116.738 321.511 116.64C321.193 116.537 320.822 116.476 320.39 116.476H310.631V140.408H318.856C320.217 140.408 321.373 140.471 322.291 140.616C322.75 140.689 323.194 140.788 323.59 140.93C323.969 141.065 324.425 141.282 324.801 141.649C325.438 142.268 325.917 143.007 326.248 143.835L326.381 144.194L326.386 144.204L328.432 150.303L328.58 150.751L328.981 151.95L327.78 152.341L327.321 152.491L326.17 152.862L325.797 152.985L324.851 153.291L324.337 152.439L324.137 152.109C323.319 150.758 322.58 149.742 321.92 149.028L321.9 149.006L321.852 148.952C321.396 148.399 320.378 147.616 318.555 146.647L318.515 146.629C317.023 145.798 315.097 145.266 312.672 145.107H310.631V197.668H320.39C320.822 197.668 321.193 197.607 321.511 197.504L321.546 197.491L321.582 197.481C321.933 197.384 322.274 197.21 322.61 196.936L322.615 196.933L322.642 196.911L322.677 196.882L322.712 196.857C323.294 196.454 323.781 196.102 324.172 195.795C324.478 195.557 324.949 195.107 325.604 194.391C325.925 193.998 326.208 193.653 326.454 193.355C326.7 193.053 326.91 192.799 327.078 192.594C327.459 192.046 328.059 191.251 328.859 190.238L328.864 190.23L328.879 190.213L328.894 190.193L328.911 190.174C329.842 189.104 330.486 188.319 330.867 187.798L331.15 187.411L331.875 186.425L332.878 187.125L333.272 187.399L334.17 188.02L334.465 188.228L335.253 188.779L334.927 189.682L334.807 190.017L331.612 198.857L331.597 198.899C331.544 199.062 331.484 199.227 331.419 199.393L331.193 200.017L331.15 200C330.774 200.745 330.248 201.433 329.463 201.816L329.423 201.835L329.38 201.855L329.332 201.875C328.889 202.046 328.314 202.135 327.783 202.198C327.196 202.266 326.459 202.321 325.589 202.364H325.564L325.531 202.366H325.503L299.944 202.364H298.206V197.79L299.367 197.704L299.816 197.67C301.177 197.57 301.955 197.136 302.429 196.559C302.935 195.943 303.316 194.898 303.316 193.169V120.974C303.316 119.246 302.935 118.201 302.429 117.585C301.955 117.008 301.177 116.573 299.816 116.474L299.367 116.44L298.206 116.354V111.78H325.458ZM255.462 111.78C268.338 111.78 279.304 116.137 288.243 124.846C297.183 133.553 301.709 144.242 301.797 156.81V156.822C301.797 169.474 297.313 180.289 288.381 189.163L288.379 189.168C279.437 197.964 268.426 202.364 255.462 202.364H229.571V197.854L230.682 197.726L231.111 197.677C232.241 197.548 233.07 197.177 233.694 196.637C234.251 196.082 234.554 195.388 234.554 194.415V120.974C234.554 119.246 234.173 118.201 233.667 117.585C233.194 117.008 232.415 116.573 231.055 116.474L230.606 116.44L229.443 116.354V111.78H255.462ZM399.612 111.927C399.622 111.928 399.635 111.93 399.645 111.932C399.652 111.933 399.66 111.935 399.667 111.937L400.911 112.179L400.874 112.35C401.227 112.536 401.548 112.772 401.844 113.043C402.155 113.267 402.421 113.53 402.649 113.821L402.877 114.041L402.835 114.078C402.912 114.193 402.987 114.31 403.053 114.43L403.145 114.404L403.484 115.414C403.507 115.481 403.532 115.548 403.554 115.615L403.564 115.657L429.327 192.55C430.854 196.209 432.592 197.517 434.254 197.675L434.696 197.717L435.832 197.824V202.364H419.57V197.748L420.764 197.692L421.225 197.668C422.574 197.602 422.863 197.267 422.913 197.188C423.061 196.796 423.111 195.883 422.484 194.126L422.476 194.104L422.471 194.085C421.539 191.279 420.177 187.347 418.392 182.289V182.284L418.384 182.264C416.679 177.205 415.104 172.561 413.657 168.332L413.647 168.303C412.429 164.518 411.24 160.936 410.091 157.554H392.797L380.795 193.71L380.785 193.735C380.138 195.589 380.179 196.583 380.352 197.026C380.414 197.187 380.505 197.3 380.66 197.396C380.793 197.478 381.006 197.567 381.34 197.626L381.718 197.672L382.162 197.709L383.311 197.807V202.364H368.458V197.802L369.609 197.709L370.055 197.672C371.878 197.525 372.979 197.062 373.611 196.508C374.364 195.761 375.131 194.504 375.84 192.587L398.787 124.175L398.439 122.986C397.451 120.281 396.455 118.856 395.63 118.268L395.628 118.265C394.364 117.358 392.413 116.706 389.602 116.471L389.158 116.435L388.007 116.339V111.78H397.032C397.516 111.78 397.967 111.786 398.371 111.805L398.386 111.726L399.612 111.927ZM630.899 112.514L631.024 112.796L641.583 135.969L652.261 112.788L652.266 112.781L652.396 112.502L652.735 111.78H661.335V116.376L660.159 116.447L659.703 116.474C658.956 116.52 658.051 116.853 656.985 117.668L656.518 118.048C655.212 119.171 654.314 120.277 653.755 121.349L644.083 142.508V193.419C644.086 195.047 644.462 196.021 644.951 196.596C645.42 197.143 646.202 197.569 647.584 197.67L648.035 197.704L649.199 197.79V202.364H631.658V197.79L632.822 197.704L633.273 197.67C634.655 197.569 635.44 197.142 635.909 196.596C636.398 196.023 636.769 195.048 636.769 193.417L636.894 142.501L627.345 121.689L627.33 121.66C625.858 118.287 624.078 116.83 622.142 116.518L621.756 116.471L621.307 116.435L620.159 116.339V111.78H630.563L630.899 112.514ZM575.464 114.237C563.289 114.237 553.593 118.262 546.205 126.248C538.878 134.182 535.117 144.413 535.034 157.084C534.954 169.916 538.67 180.259 546.077 188.268C553.465 196.255 563.161 200.281 575.336 200.281C587.502 200.281 597.152 196.216 604.456 188.155L604.461 188.15C611.876 180.054 615.59 169.705 615.51 156.959C615.427 144.349 611.703 134.158 604.444 126.241L604.331 126.119C597.119 118.223 587.555 114.237 575.464 114.237ZM241.868 197.668H255.462C266.952 197.668 276.046 193.851 282.922 186.288L283.569 185.561C290.137 177.989 293.459 168.455 293.462 156.835C293.379 144.911 289.836 135.26 282.927 127.739C276.054 120.256 266.959 116.476 255.462 116.476H241.868V197.668ZM394.326 152.855H408.569C407.757 150.416 406.521 146.789 404.848 141.965L404.846 141.96L404.836 141.93C403.499 137.921 402.346 134.471 401.38 131.581L394.326 152.855ZM613.007 0C625.979 1.21961e-06 637.085 4.35843 646.222 13.0587L646.227 13.0563L647.067 13.8835C647.082 13.8994 647.1 13.9165 647.115 13.9324L648.018 14.8306L648.008 14.8379C656.797 23.9445 661.25 34.9939 661.333 47.8934C661.421 61.2327 656.759 72.6775 647.376 82.1237L647.371 82.1287C637.98 91.4962 626.448 96.1882 612.879 96.1882C599.313 96.188 587.778 91.4934 578.387 82.1262L578.385 82.1237C569.007 72.6805 564.297 61.2407 564.297 47.9057C564.297 34.5696 569.004 23.2077 578.395 13.9275L578.53 13.7954L578.54 13.788C587.986 4.60056 599.511 0.000229128 613.007 0ZM249.237 2.25885C254.459 2.34784 258.985 3.78031 262.709 6.63214C266.468 9.51279 268.461 13.2201 268.464 17.667C268.461 22.5692 266.666 26.8478 263.14 30.4221C259.574 34.0403 255.053 35.8331 249.714 35.8331H241.93V84.2919C241.93 85.994 242.3 87.0457 242.797 87.6765C243.263 88.2677 244.02 88.7117 245.321 88.8438L245.755 88.8879L246.881 89.0029V93.5526H229.443V88.9957L230.577 88.8857L231.013 88.8438C232.424 88.7077 233.247 88.2461 233.746 87.6447C234.267 87.0167 234.649 85.9787 234.649 84.2919V11.5169L234.63 10.8929C234.55 9.51212 234.204 8.6313 233.763 8.08584C233.292 7.50507 232.522 7.06964 231.179 6.96988L230.731 6.93562L229.571 6.84997V2.25885H249.237ZM296.754 2.40813C296.764 2.40982 296.774 2.4113 296.784 2.41303C296.792 2.41438 296.799 2.41649 296.807 2.41792L298.043 2.66019L298.008 2.83396C298.366 3.0251 298.695 3.26803 298.993 3.54858C299.292 3.77009 299.55 4.02783 299.771 4.31212L299.991 4.52994L299.954 4.5642C300.034 4.68193 300.107 4.80467 300.174 4.92885L300.267 4.90191L300.656 6.07906L300.658 6.08395L326.283 83.6949C327.803 87.3798 329.528 88.6869 331.165 88.8438L331.602 88.8857L332.735 88.9957V93.5526H316.569V88.9197L317.76 88.8611L318.219 88.8391C319.57 88.7721 319.841 88.4273 319.886 88.3521C320.037 87.9472 320.082 87.0187 319.46 85.2489L319.448 85.2048C318.522 82.3798 317.173 78.4243 315.4 73.3355L315.398 73.333L315.39 73.311L315.385 73.2914C313.695 68.1917 312.131 63.5089 310.691 59.2464L310.681 59.2171C309.472 55.4022 308.291 51.7902 307.148 48.3806H289.986L278.068 84.8059L278.07 84.8084L278.068 84.8156L278.063 84.8352L278.055 84.855C277.491 86.4894 277.448 87.4678 277.561 87.9923L277.621 88.1905L277.674 88.3055C277.734 88.4123 277.814 88.496 277.927 88.5674C278.1 88.6759 278.416 88.7944 278.97 88.8416L279.414 88.8807L280.56 88.9786V93.5526H265.788V88.9736L266.939 88.8782L267.383 88.8416C269.188 88.6927 270.277 88.2288 270.903 87.6718C271.653 86.9162 272.421 85.6446 273.128 83.7022L295.922 14.7449L295.575 13.5531C294.593 10.8146 293.602 9.3707 292.782 8.77597L292.78 8.77354C291.526 7.8605 289.59 7.20379 286.801 6.96742L286.358 6.93071L285.212 6.83283V2.25885H294.184C294.66 2.25885 295.104 2.26765 295.505 2.28577L295.52 2.20501L296.754 2.40813ZM358.132 88.8365H367.821C368.132 88.8365 368.458 88.7849 368.799 88.6727C369.258 88.5215 369.599 88.3832 369.84 88.2639L369.845 88.2614L369.882 88.2444L369.925 88.2223L369.973 88.2053C370.173 88.1261 370.482 87.9479 370.903 87.6008L371.527 87.0721C371.698 86.9229 371.831 86.8001 371.929 86.7027C372.227 86.409 372.663 85.9411 373.248 85.2808C373.782 84.6029 374.251 84.0463 374.637 83.6508C374.95 83.2607 375.424 82.6371 376.069 81.764L376.074 81.7565L376.079 81.7518L376.084 81.7442C376.465 81.2388 376.813 80.7897 377.119 80.4008L377.917 79.4146L378.062 79.2458L378.436 78.7979H379.296L379.306 78.7709L379.381 78.7979H382.987L382.38 80.4767L382.15 81.1155L381.768 82.1725V82.2582H381.736L378.977 89.8986C378.865 90.2119 378.749 90.5081 378.631 90.7822L378.273 91.5383C378.05 91.9508 377.724 92.472 377.235 92.8329L377.212 92.8502L377.187 92.8698L377.157 92.8893C376.996 92.9955 376.828 93.0732 376.678 93.1291L376.299 93.2416C376.184 93.2705 376.061 93.2973 375.933 93.3201L375.545 93.3787C375.01 93.4506 374.323 93.5048 373.503 93.5476L373.478 93.5501L373.443 93.5526H345.772V88.9588L346.933 88.8734L347.379 88.8416C348.714 88.7426 349.478 88.3035 349.955 87.7058C350.466 87.0605 350.85 85.9636 350.85 84.1671V11.5169C350.85 9.82311 350.474 8.77875 349.965 8.14947C349.483 7.55366 348.691 7.09901 347.337 6.96499L346.903 6.92339L345.772 6.8108V2.25885H358.132V88.8365ZM423.246 2.40813C423.254 2.40939 423.264 2.41165 423.271 2.41303C423.281 2.4149 423.294 2.41608 423.304 2.41792L424.538 2.66019L424.5 2.83396C424.856 3.02399 425.185 3.26517 425.483 3.54367C425.786 3.76818 426.047 4.03016 426.27 4.31946L426.483 4.52994L426.446 4.5642C426.526 4.68288 426.601 4.8061 426.669 4.93128L426.762 4.90191L427.15 6.07418C427.15 6.07698 427.15 6.08112 427.153 6.08395L452.775 83.6924C454.295 87.3785 456.023 88.6864 457.66 88.8438L458.099 88.8857L459.232 88.9957V93.5526H443.061V88.9197L444.255 88.8611L444.714 88.8391C446.038 88.7736 446.326 88.4408 446.381 88.3569C446.532 87.9542 446.582 87.0224 445.955 85.2414L445.947 85.2244L445.942 85.2048C445.017 82.3793 443.668 78.4233 441.895 73.333L441.893 73.328L441.887 73.311L441.88 73.2914C440.187 68.1919 438.623 63.5087 437.186 59.2464L437.181 59.2269L437.173 59.2073L437.171 59.1998C435.962 55.3922 434.781 51.7845 433.643 48.3806H416.481L404.557 84.8304L404.547 84.8572L404.545 84.8623C403.905 86.7252 403.94 87.7344 404.113 88.1905C404.179 88.3571 404.271 88.4722 404.422 88.5674C404.597 88.6759 404.913 88.7944 405.465 88.8416L405.906 88.8807L407.055 88.9786V93.5526H392.28V88.9736L393.431 88.8782L393.875 88.8416C395.67 88.6937 396.759 88.2344 397.388 87.6815C398.14 86.9275 398.913 85.6539 399.622 83.7022L422.414 14.7449L422.078 13.58C421.092 10.8234 420.097 9.37228 419.274 8.77597L419.272 8.77354C418.018 7.86077 416.085 7.20372 413.294 6.96742L412.855 6.93071L411.706 6.83283V2.25885H420.678C421.155 2.25885 421.601 2.26761 422 2.28577L422.015 2.20501L423.246 2.40813ZM508.1 3.87895L507.91 4.49568L481.936 88.8365H494.486C496.906 88.6789 498.83 88.1444 500.314 87.3046L500.322 87.2996L500.344 87.2876C502.162 86.308 503.175 85.5203 503.627 84.9625L503.629 84.96L503.649 84.9382L503.667 84.9111L503.692 84.8866C504.349 84.1656 505.083 83.1416 505.896 81.7786L506.094 81.4458L506.608 80.582L507.566 80.8952L507.937 81.0175L509.081 81.3944L509.532 81.5438L510.715 81.9352L510.334 83.1198L510.186 83.5701L508.155 89.8327L508.158 89.8352L508.153 89.8497L508.148 89.8743L508.138 89.8986C507.812 90.8003 507.33 91.7002 506.608 92.351L506.693 92.5442L505.745 92.9457C505.653 92.9895 505.557 93.0314 505.457 93.068L504.291 93.4988L504.246 93.3787C504.233 93.3807 504.223 93.3845 504.211 93.386L503.742 93.4474C503.085 93.5193 502.308 93.5526 501.425 93.5526H473.044L473.548 91.93L473.739 91.3108L499.833 6.97477H487.899C485.587 7.13367 483.656 7.66495 482.066 8.52146C480.268 9.49044 479.255 10.2725 478.797 10.8293L478.343 11.4288C477.844 12.1009 477.217 12.9925 476.462 14.1135L476.249 14.4292L475.697 15.2466L474.772 14.904L474.411 14.7718L473.398 14.395L472.966 14.2334L471.841 13.8174L472.209 12.6745L472.35 12.2414L474.381 5.96649L474.441 5.77804C474.468 5.69562 474.494 5.61214 474.521 5.53087L474.764 4.782L474.842 4.80648C475.208 4.12003 475.722 3.51918 476.447 3.1105C476.705 2.9641 476.984 2.83552 477.267 2.72139L477.254 2.66019L477.59 2.59414C477.944 2.47808 478.313 2.40383 478.689 2.38855C479.346 2.29254 480.416 2.25888 481.745 2.25885H508.597L508.1 3.87895ZM559.072 3.88141L558.881 4.49811L532.913 88.8365H545.46C547.88 88.6789 549.799 88.1441 551.288 87.3046L551.303 87.2948L551.328 87.2826C552.845 86.4644 553.798 85.7777 554.335 85.2489L554.603 84.9552L555.375 83.8588L555.448 83.9225C555.889 83.3316 556.368 82.6239 556.867 81.7836L557.065 81.4508L557.577 80.582L558.537 80.8952L558.911 81.0175L560.055 81.3944L560.506 81.5438L561.689 81.9352L561.308 83.1198L561.16 83.5676L559.132 89.8425L559.119 89.8816L559.104 89.9184L559.097 89.9354C558.771 90.8241 558.294 91.709 557.582 92.351L557.667 92.5417L556.702 92.9504C556.614 92.992 556.524 93.0334 556.429 93.068L555.263 93.4988L555.215 93.3787C555.205 93.3805 555.195 93.3847 555.185 93.386L554.713 93.4474C554.387 93.4832 554.029 93.511 553.643 93.5281L552.396 93.5526H524.021L524.522 91.93L524.713 91.3108L550.804 6.97477H538.871C536.559 7.13387 534.628 7.66485 533.038 8.52146C531.242 9.49009 530.229 10.2725 529.773 10.8293L529.314 11.4288C528.815 12.1008 528.191 12.9923 527.433 14.1135L527.223 14.4292L526.671 15.2466L525.746 14.904L525.387 14.7718L524.369 14.395L523.94 14.2334L522.812 13.8174L523.183 12.6745L523.324 12.2414L525.355 5.96649L525.357 5.96404C525.4 5.81846 525.445 5.67326 525.495 5.53087L525.738 4.782L525.814 4.80402C526.18 4.11805 526.699 3.51893 527.421 3.1105C527.679 2.96445 527.955 2.83532 528.238 2.72139L528.226 2.66019L528.567 2.59168C528.92 2.47622 529.289 2.40372 529.665 2.38855C530.32 2.29261 531.393 2.25887 532.719 2.25885H559.573L559.072 3.88141ZM613.007 4.71594C600.92 4.71616 591.291 8.77144 583.952 16.8227L583.949 16.8202C576.665 24.8184 572.933 35.136 572.851 47.9154C572.768 60.8575 576.464 71.2909 583.824 79.3655C591.164 87.4169 600.793 91.4696 612.879 91.4699C624.961 91.4699 634.54 87.3793 641.794 79.253L641.854 79.1869C649.186 71.032 652.865 60.6157 652.782 47.7906C652.699 35.0104 648.966 24.6913 641.679 16.693L641.676 16.6881C634.507 8.73001 625.008 4.71594 613.007 4.71594ZM291.501 43.6645H305.643C304.838 41.2051 303.602 37.5405 301.937 32.664L301.927 32.6347C300.603 28.6063 299.46 25.1377 298.504 22.2312L291.501 43.6645ZM417.993 43.6645H432.136C431.331 41.2033 430.094 37.5335 428.429 32.6517L428.414 32.6076V32.6029H428.412C427.09 28.5877 425.952 25.1302 424.996 22.2312L417.993 43.6645ZM241.93 31.1173H249.207C253.117 31.1173 255.993 29.8856 258.062 27.559C260.186 25.0868 261.307 21.8793 261.307 17.7918V17.2314C261.237 14.6649 260.131 12.3709 257.819 10.2933L257.814 10.2909L257.801 10.2762C255.424 8.07479 252.591 6.97484 249.207 6.97477H241.93V31.1173Z" fill="#B39067"/>
<defs>
<linearGradient id="paint0_linear_1128_40" x1="196.874" y1="296.109" x2="460.153" y2="-127.72" gradientUnits="userSpaceOnUse">
<stop stop-color="#B39067"/>
<stop offset="0.5" stop-color="#EDC892"/>
<stop offset="1" stop-color="#B39067"/>
</linearGradient>
</defs>
</svg>
